<svg xmlns="http://www.w3.org/2000/svg" xmlns:xlink="http://www.w3.org/1999/xlink" width="153" height="62" viewBox="0 0 153 62">
  <defs>
    <clipPath id="clip-path">
      <rect id="Rectangle_1219" data-name="Rectangle 1219" width="153" height="62" transform="translate(0 -0.154)" fill="#ef0d73"/>
    </clipPath>
  </defs>
  <g id="Group_1" data-name="Group 1" transform="translate(-160 -33.846)">
    <g id="Group_6967" data-name="Group 6967" transform="translate(160 34)">
      <g id="Group_6967-2" data-name="Group 6967" clip-path="url(#clip-path)">
        <path id="Path_13102" data-name="Path 13102" d="M238.389,18.724c.155-.11.342-.176.446-.356-.01-.164-.063-.341.113-.455l-.017-.347a1.968,1.968,0,0,1-.184-.92l-.141-.237c-.128.014-.255.027-.326-.123l-.216-.014c-.174.059-.271-.031-.333-.188-.127-.085-.111-.215-.1-.343-.438-.168-.452-.164-.573.249-.052.177-.071.451-.3.394a2.059,2.059,0,0,1-1.354-.618.155.155,0,0,1-.077-.031,6.954,6.954,0,0,1-.737-.175c-.275-.1-.334-.3-.132-.517a4.045,4.045,0,0,1,.631-.689c.017-.065.033-.129.05-.194a5.4,5.4,0,0,0-.336-1.837.3.3,0,0,1-.035-.088.838.838,0,0,1-.395-.71.915.915,0,0,1-.006-.439q0-.691,0-1.381c-.007-.112-.014-.223-.02-.335a.205.205,0,0,1-.093-.233l-.046-.187a.27.27,0,0,1-.195-.262l-.43-.252a.189.189,0,0,1-.223-.1c-.163.025-.289-.083-.432-.131a9.527,9.527,0,0,1-1.323-.122c-.077,0-.1-.1-.119-.167l-.005,0c-.044-.029-.123-.055-.126-.087a.98.98,0,0,1,.59-.941c.221-.162.5-.144.738-.256.111-.2.093-.466.314-.6l.041-.181a8.4,8.4,0,0,1,.147-1.34c.038-.346-.127-.672-.022-1a3.687,3.687,0,0,0,.087-1.176,1.574,1.574,0,0,1,.03-.561,1.247,1.247,0,0,0-.024-.824.462.462,0,0,1-.221-.232c-.31-.125-.623-.244-.93-.376-.128-.055-.266-.117-.269-.3L231.738,0a5.457,5.457,0,0,1-1.324,0l-.185.054c-.028.093-.079.2-.172.187a3.089,3.089,0,0,0-1.383.352.194.194,0,0,1-.077.032.243.243,0,0,1-.248.2h0a.314.314,0,0,1-.222.331,5.905,5.905,0,0,0-.552,1.373.7.7,0,0,1-.864.268l-.23-.123c-.245-.232-.229-.329.108-.623a.744.744,0,0,0,.156-.435.185.185,0,0,1-.13-.131l-.528.043c-.047.474-.6.337-.742.8-.04-.191-.055-.263-.07-.336a.277.277,0,0,1-.081-.036l-.229,0-.006.006c0,.356,0,.713,0,1.07,0,.706.118,1.345.849,1.638.014.006.021.029.031.045l.75-.025c.04-.121.1-.218.244-.181l.273-.072c.185-.235.229-.235.417,0l.388.045c.146,0,.214.075.211.225a.208.208,0,0,1,.029.08.237.237,0,0,1,.188.262.217.217,0,0,1,.03.081c.445.31.426.826.514,1.29.022.117-.071.206-.173.262a.645.645,0,0,1-.148.41.24.24,0,0,1-.2.255.686.686,0,0,1-.235.429c-.279.387-.7.369-1.1.423l-.213.022c-.085.124-.208.114-.331.1l-.171.052a.566.566,0,0,1-.479.3l-.762.689a.276.276,0,0,1-.186.271.356.356,0,0,1-.145.3.265.265,0,0,1-.182.273l-.039.182a.5.5,0,0,1-.306.479.266.266,0,0,1-.027.088.229.229,0,0,1-.187.259.225.225,0,0,1-.026.084.241.241,0,0,1-.19.26c-.023.177-.161.282-.239.425a.254.254,0,0,1-.194.262.185.185,0,0,1-.022.08.69.69,0,0,1-.419.6,5.258,5.258,0,0,1-.891,1.338,4.135,4.135,0,0,0-.353,1.865c.022.421.193.8.205,1.219.086.6.41,1.119.509,1.716a2.216,2.216,0,0,1,.056.555.177.177,0,0,1,.093.233q.033.259.066.518c.173.072.2.219.176.387l.151.41a.265.265,0,0,1,.182.272.184.184,0,0,1,.028.078.559.559,0,0,1,.3.489,1.2,1.2,0,0,0,.988.363c.105-.271.323-.257.544-.233a.28.28,0,0,1,.082-.032,7.392,7.392,0,0,0,.58-.9c0-.17-.007-.339-.014-.509a1.262,1.262,0,0,0-1.089-1.306c-.652-.114-.862-.36-.867-1.037-.005-.755.031-1.513-.013-2.265-.028-.493-.008-.9.494-1.118a.332.332,0,0,0,.118-.114q.8-1.087,1.591-2.176c.037-.112.092-.219.224-.184.079.021.075.112.051.188l.5,1.317c.118.052.194.128.142.276.233.654.47,1.307.7,1.963a3.048,3.048,0,0,1-.122,1.651c-.01.051-.046.123-.086.137-.286.1-.343.422-.546.6a.566.566,0,0,0-.093.845c.207.093.2.188,0,.284-.158.518-.507.938-.683,1.447-.217.267-.222.646-.439.913q-.068.394-.136.789.01.691.02,1.381a7.077,7.077,0,0,1,0,1.239.81.81,0,0,0,.269,1.032,1.411,1.411,0,0,1,.232.306l.275.075a.25.25,0,0,1,.329.191,11.536,11.536,0,0,1,.7,1.773,4.72,4.72,0,0,1,.8,1.57.825.825,0,0,1-.263.907.128.128,0,0,1-.013.083c-.084.3-.266.162-.433.108a6.19,6.19,0,0,0-2.342-.362,4.453,4.453,0,0,1-1.183-.092,1.323,1.323,0,0,1-1.166-1.15l-.23-.241a3.3,3.3,0,0,0-1.324-.248.9.9,0,0,0-.552.49c-.077.307-.144.618-.235.92-.053.174-.1.369-.3.439l-.112.121a.214.214,0,0,1-.194.248h0a.213.213,0,0,1-.238.2,1.912,1.912,0,0,1-.551.575.24.24,0,0,1-.19.26.2.2,0,0,1-.031.083,3.539,3.539,0,0,0-.134.925.764.764,0,0,0,.25.358,3.836,3.836,0,0,0,1.211-.126l.213-.015a.2.2,0,0,1,.224-.1c.244-.06.409-.266.629-.371.032-.135.1-.223.246-.183l.516-.159a.359.359,0,0,1,.208-.256.12.12,0,0,1,.016-.081.225.225,0,0,1,.219-.2,1.909,1.909,0,0,1,1.681.759.156.156,0,0,1,.077.027.251.251,0,0,1,.25.2.159.159,0,0,1,.076.028.253.253,0,0,1,.252.2.154.154,0,0,1,.075.03.243.243,0,0,1,.25.2.175.175,0,0,1,.077.031.234.234,0,0,1,.25.2.2.2,0,0,1,.077.031.226.226,0,0,1,.249.2.211.211,0,0,1,.077.032.244.244,0,0,1,.26.186.841.841,0,0,1,.5.272.24.24,0,0,1,.262.182.977.977,0,0,1,.5.161,2.441,2.441,0,0,1,.753.28,1.351,1.351,0,0,0,1.707-.34c.013-.015.065.006.141.016-.107.306,0,.651-.213.934q-.01.111-.019.222a.17.17,0,0,1-.091.233q0,1.428,0,2.855a.175.175,0,0,1,.091.233c.006.074.012.148.018.222a4.966,4.966,0,0,1,.451,1.7c.013.061.026.121.039.181a2.725,2.725,0,0,1,.378,1.19c.007.074.014.147.021.221a.213.213,0,0,1,.09.234l.017.221a.9.9,0,0,1,.2.575,4.705,4.705,0,0,1,.237,1.489c-.013.564-.006,1.129-.008,1.694.176.143.041.2-.068.265a5.826,5.826,0,0,0,.072,1.616c.027.235.185.3.343.386.237.124.517.184.639.477a.894.894,0,0,1,.213.018,7.194,7.194,0,0,0,2.323.321c.322,0,.644.009.967.013.2-.25.068-.554.124-.827a1.642,1.642,0,0,1-.374-.546.2.2,0,0,1-.081-.023c-.279-.325-.56-.649-.834-.979-.029-.035-.021-.105-.029-.159a.3.3,0,0,1-.024-.089.788.788,0,0,1-.409-.6l-.044-.182a.271.271,0,0,1-.186-.269l-.321-.145c-.307.039-.356-.231-.416-.426a4.259,4.259,0,0,1-.207-1.828,2.286,2.286,0,0,1-.042-.676q0-3.036,0-6.072a8.538,8.538,0,0,0-.073-1.243,4.01,4.01,0,0,1,.137-1.222,1.857,1.857,0,0,0,.035-.618c-.155-.869-.1-1.764-.3-2.627a1.249,1.249,0,0,1,0-.283.193.193,0,0,1-.092-.234,1.782,1.782,0,0,1,.308-1.3A10.326,10.326,0,0,0,233.4,28.5a.221.221,0,0,1,.152-.28,3.135,3.135,0,0,1,.261-.75.425.425,0,0,1,.431-.44l.231-.241a12.845,12.845,0,0,1,.021-1.362,23.44,23.44,0,0,0,.3-3.2l-.045-.3a2.622,2.622,0,0,1-.377-1.188q-.011-.281-.021-.563a1.918,1.918,0,0,1-.413-1.031,6.041,6.041,0,0,1,0-1.121c0-.292.212-.338.408-.309a14.517,14.517,0,0,0,2.345.2c.135,0,.25.029.289.189l.005,0a.4.4,0,0,1,.317.348c.191.064.288.241.418.379l.446-.006a.186.186,0,0,1,.22-.113" transform="translate(-135.132 0.001)" fill="#ef0d73"/>
        <path id="Path_13103" data-name="Path 13103" d="M4.291,74.814H0V57.583H6.831a5.7,5.7,0,0,1,4.258,1.508,5.816,5.816,0,0,1,1.478,4.25,5.817,5.817,0,0,1-1.478,4.251A5.7,5.7,0,0,1,6.831,69.1H4.291Zm0-9.324H5.714q2.364,0,2.364-2.149T5.714,61.194H4.291Z" transform="translate(0 -34.65)" fill="#ef0d73"/>
        <path id="Path_13104" data-name="Path 13104" d="M88.422,57.582l2.846,11.129,3.5-11.129h3.416l3.5,11.129,2.846-11.129h4.488L104.1,74.814H99.719l-3.24-9.987-3.24,9.987H88.86L83.934,57.582Z" transform="translate(-51.91 -34.65)" fill="#ef0d73"/>
        <path id="Path_13105" data-name="Path 13105" d="M161.962,61.376h-5.1v2.879h4.817v3.794h-4.817V71.02h5.1v3.793H152.57V57.583h9.392Z" transform="translate(-94.359 -34.65)" fill="#ef0d73"/>
        <path id="Path_13106" data-name="Path 13106" d="M197.346,74.814H192l-4.094-6.627v6.627h-4.291V57.582H190.3A6.305,6.305,0,0,1,192.7,58a4.649,4.649,0,0,1,1.7,1.154,4.912,4.912,0,0,1,1.007,1.691,6.126,6.126,0,0,1,.339,2.057,5.212,5.212,0,0,1-.908,3.188,4.544,4.544,0,0,1-2.682,1.657Zm-9.436-9.53h.81a3.034,3.034,0,0,0,1.949-.548,2.171,2.171,0,0,0,0-3.154,3.034,3.034,0,0,0-1.949-.548h-.81Z" transform="translate(-113.562 -34.649)" fill="#ef0d73"/>
        <path id="Path_13107" data-name="Path 13107" d="M283.6,74.814H278.26l-4.094-6.627v6.627h-4.291V57.582h6.678a6.306,6.306,0,0,1,2.408.423,4.65,4.65,0,0,1,1.7,1.154,4.911,4.911,0,0,1,1.007,1.691A6.125,6.125,0,0,1,282,62.907a5.211,5.211,0,0,1-.908,3.188,4.544,4.544,0,0,1-2.682,1.657Zm-9.436-9.53h.81a3.034,3.034,0,0,0,1.948-.548,2.171,2.171,0,0,0,0-3.154,3.034,3.034,0,0,0-1.948-.548h-.81Z" transform="translate(-166.908 -34.649)" fill="#ef0d73"/>
        <path id="Path_13108" data-name="Path 13108" d="M314.564,57.582v9.369q0,.755.055,1.543a4.362,4.362,0,0,0,.328,1.428,2.348,2.348,0,0,0,.865,1.04,2.947,2.947,0,0,0,1.664.4,2.892,2.892,0,0,0,1.653-.4,2.45,2.45,0,0,0,.865-1.04,4.218,4.218,0,0,0,.34-1.428q.054-.789.055-1.543V57.582h4.269v9.987q0,4.023-1.763,5.873t-5.419,1.852q-3.656,0-5.43-1.852t-1.773-5.873V57.582Z" transform="translate(-191.893 -34.649)" fill="#ef0d73"/>
        <path id="Path_13109" data-name="Path 13109" d="M357.154,74.813V57.582h4.291l7.926,10.536V57.582h4.269V74.813h-4.269l-7.926-10.535V74.813Z" transform="translate(-220.887 -34.649)" fill="#ef0d73"/>
        <path id="Path_13110" data-name="Path 13110" d="M146.964,78.6c-16.407-2.378-32.814,1.767-48.479,5.964-8.17,2.213-16.431,4.51-24.809,5.732C63.32,91.856,52.4,92.449,42.357,88.824a37.152,37.152,0,0,1-14.471-8.949A19.854,19.854,0,0,0,35.9,73.054c3.687-5.77,2.491-13.926-4.086-17.2a7.037,7.037,0,0,0-5.6-.109A11.683,11.683,0,0,0,18.433,67.96,19.145,19.145,0,0,0,23.11,78.073c-3.9,1.351-9.548,2.41-14.88.106l4.3,4.724a32.749,32.749,0,0,0,13.223-2.092,48.649,48.649,0,0,0,10.015,6.856,67.372,67.372,0,0,0,31.907,7.578c13.14-.24,26.036-3.486,38.585-6.872,14.275-3.927,28.75-8.082,43.745-7.443,2.146.087,4.284.28,6.421.545l.122-.513a50.8,50.8,0,0,0-9.584-2.361M29.474,60.012l0,0,0,0s-.008,0,0,0m-6.81,10.536c-.834-3.523-.025-7.034,2.989-9.213a7.021,7.021,0,0,1,3.206-1.343,2.6,2.6,0,0,1,.411-.01.959.959,0,0,1,.207.032h0l.062.03c.092.042.182.087.271.132.177.092.351.189.518.294a6.652,6.652,0,0,1,3.033,4.877c.5,3.709-1.4,7-4.11,9.481q-.64.579-1.322,1.11l.11-.1a23.283,23.283,0,0,1-2.425,1.24,19.534,19.534,0,0,1-2.953-6.528" transform="translate(-5.09 -33.229)" fill="#ef0d73"/>
        <path id="Path_13111" data-name="Path 13111" d="M4.991,22.176H.042V2.3H7.92a6.569,6.569,0,0,1,4.911,1.739,6.71,6.71,0,0,1,1.7,4.9,6.71,6.71,0,0,1-1.7,4.9,6.569,6.569,0,0,1-4.911,1.74H4.991Zm0-10.754H6.633q2.726,0,2.727-2.478T6.633,6.467H4.991Z" transform="translate(-0.026 -1.386)" fill="#ef0d73"/>
        <rect id="Rectangle_1218" data-name="Rectangle 1218" width="4.949" height="19.873" transform="translate(17.186 0.917)" fill="#ef0d73"/>
        <path id="Path_13112" data-name="Path 13112" d="M68.6,22.176V2.3h4.949l9.14,12.15V2.3h4.924V22.176H82.693l-9.14-12.151V22.176Z" transform="translate(-42.429 -1.386)" fill="#ef0d73"/>
        <path id="Path_13113" data-name="Path 13113" d="M133.974,10.5l6.035-8.2h6.111l-7.55,9.409,8.257,10.463h-6.414l-6.439-8.618v8.618h-4.949V2.3h4.949Z" transform="translate(-79.797 -1.386)" fill="#ef0d73"/>
      </g>
    </g>
  </g>
</svg>
