<svg xmlns="http://www.w3.org/2000/svg" width="24.8" height="31" viewBox="0 0 24.8 31">
  <g id="Location" transform="translate(-4 -2)">
    <path id="Vector" d="M12.4,0A12.4,12.4,0,0,0,0,12.4c0,8.37,10.927,17.825,11.392,18.228a1.55,1.55,0,0,0,2.015,0C13.95,30.225,24.8,20.77,24.8,12.4A12.4,12.4,0,0,0,12.4,0Zm0,27.357c-3.3-3.1-9.3-9.78-9.3-14.957a9.3,9.3,0,1,1,18.6,0C21.7,17.577,15.7,24.273,12.4,27.357ZM12.4,6.2a6.2,6.2,0,1,0,4.384,1.816A6.2,6.2,0,0,0,12.4,6.2Zm0,9.3a3.1,3.1,0,1,1,2.192-.908A3.1,3.1,0,0,1,12.4,15.5Z" transform="translate(4 2)" fill="#fff"/>
  </g>
</svg>
