<svg xmlns="http://www.w3.org/2000/svg" width="48.714" height="31" viewBox="0 0 48.714 31">
  <path id="Icon_material-people" data-name="Icon material-people" d="M34.714,20.786a6.643,6.643,0,1,0-6.643-6.643A6.615,6.615,0,0,0,34.714,20.786ZM17,20.786a6.643,6.643,0,1,0-6.643-6.643A6.615,6.615,0,0,0,17,20.786Zm0,4.429c-5.159,0-15.5,2.591-15.5,7.75V38.5h31V32.964C32.5,27.805,22.159,25.214,17,25.214Zm17.714,0c-.642,0-1.373.044-2.148.111,2.569,1.86,4.362,4.362,4.362,7.639V38.5H50.214V32.964C50.214,27.805,39.874,25.214,34.714,25.214Z" transform="translate(-1.5 -7.5)" fill="#fff"/>
</svg>
