<svg xmlns="http://www.w3.org/2000/svg" width="2288.992" height="1184.015" viewBox="0 0 2288.992 1184.015">
  <g id="Information" transform="translate(191.003 -2082.996)">
    <g id="Advancing_on_many_fronts_in_Canada_" data-name="Advancing on many  fronts  in Canada ">
      <g id="Background">
        <path id="Shape_3_copy" data-name="Shape 3 copy" d="M-181.9,2946.734c2.61.284,20.212-5.715,28.987-7.822,9.339-2.265,17.171-4.792,26.495-6.208-21.975,4.01-40.478,19.278-10.624,17.692,7.251-.392,14.889-4.056,22.923-4.5,9.1-.5,12.728,1.659,19.177,1.045,10-.937,26.254-5.442,41.653-8.366,23.508-4.5,45.98-9.352,66.68-13.161,38.949-7.155,83.056-10.5,127.738-18.026,62.99-10.588,132.646-24.721,204.988-31.415,39.8-3.682,85.261-9.6,128.051-14.34,58.674-6.483,118.277-9.7,176.9-13.728,172.181-11.879,344.045-23.455,504.52-25.053,188.525-1.883,364.035,1.249,547.4,3.806,26.124.362,52.325,3.258,76.49,1.685,9.453-.624,18.144-3.114,25.122-3.546,10.088-.653,23.027,2.713,27.21-3.84-10.979,2.892-2.8-3.4,0,0q53.543-.389,108.01-1.539c-1.888-7.514-32.973-3.068-47.157-5.8-12.178-2.349,11.06-1.244,16.843-1.132,8.533.158,13.021.314,21.166-.48-217.209-10.515-446.535-11.7-673.463-14.7-45.953,1.568-90.89,2.382-133.474,1.361-3.094-.254-10.679,2.968-10.569.248-3.144.226-7.685,1.539-8.481-.047-3.1-.253-10.7,2.972-10.579.229-3.109-.233-10.7,2.972-10.586.25-13.274,3.315-4.928-3.116,0,0,3.094.255,10.7-2.951,10.586-.25,3.094.254,10.7-2.951,10.579-.229,3.144-.226,7.693-1.54,8.481.047,3.1.234,10.687-2.969,10.569-.248,46.51-2,90.653-2.209,133.474-1.361,158.127-1.958,312.353,2.4,471.136,4.577,9.58.148,46.17-.435,14.661-2.069-94.188-4.874-195.047-1.067-295.141-4.475-4.284-.147-3.808-.726-8.6-1.294.671.083-2.836,2.059-4.068,1.818-1.578-.291.411-2.073-2.324-2.16-1.213-.046-10.545,3.817-14.654,2.068-.085-.027,2.441-2.753,1.877-2.773-3.2.017-7.055,2.5-10.357,2.725-5.725.374-20.365-.6-29.765-.795-12.543-.244-26.162.059-38.236-.844-1.833-.137-1.582-1.83-8.7-2.5-28.548-2.684-68.853.574-103.819.928-25.464.276-56.907-.617-86.95-.209-13.493.207-40.2,2.593-17.079-1.322-6.38-1.251-15.342-.48-25.35,1.09.348,1.45-2.974,1.189,0,0-284,12.217-682.445,32.271-1030.889,90.585-52.186,8.747-106.369,14.932-150.22,27.459-8.741,2.477-14.474,6.051-22.6,8.166-23.558,6.108-44.921,10.307-68.439,17.142.107-.035-5.165,1.656-6.164,2.113-7.545,3.474,9.249-2.055,4.407,1.887C-176.423,2941.321-188.879,2946-181.9,2946.734ZM1110.418,2791.81c1.106.456-5.047,2.588-6.173,2.115S1109.287,2791.339,1110.418,2791.81ZM-121.718,2932.022c.083-3.763,8.8-.057,0,0Zm17.628-16.211c-1.125-.473-7.281,1.639-6.173,2.115C-109.138,2918.4-102.965,2916.285-104.09,2915.812Zm1451.182,104.5c1.808-.137,3.708-.207,5.535-.327C1352.7,3019.441,1351.355,3019.177,1347.092,3020.311Zm620.807-52.7a8.387,8.387,0,0,1-3.348.947A3.921,3.921,0,0,0,1967.9,2967.613ZM-87.609,3195.329c.253-.174.667-.332.955-.49C-86.458,3194.594-86.614,3194.636-87.609,3195.329Zm41.228,49.113a1.25,1.25,0,0,0-.681,1.3A1.636,1.636,0,0,1-46.381,3244.442Zm2118.943-102.025c4.749-.77,12.271.1-.11-1.229-4.917-.549-14.041-4.139-19.508-4.731-12.039-1.282-24.919.634-31.851-.5-.664-.1,5.054-2.511,3.973-3.049.94.459-9.529-1.638-12.9-1.932-8.053-.719-20.1,1.435-27.547.155-.579-.095-2.5-4.227-6.841-5.274-6.673-1.605-19.458-.314-29.746-.777-22.5-1.051,10.069-.789,14.764-.841,7.71-.12,31.156-2.323,54.993-1.541-3.8-2.326-14.135.356-17.2-2.548-6.757,3.657-4.827-2.38-2.3-2.163-7.831-.672-4.17,3.095-12.455,3-.412-.021,4.955-2.773,3.956-3.066-5.588-1.679-72.679-1.867-87.169-2.666-15.847-.863-9.128-2.681,10.249-3.935,30.257-1.959,88.956,5.2,121.118,2.871,6.87-.516,5.009-3.037,10.46-1.476,6.646.918,25.709-3.747,10.255-3.954-1.745-.011-19.594-2.033-19.287-2.275.4-.293,64.664-.378,42-4.682-15.176-2.855-29.053-2.614-44.854-3.622-21.105-1.385,24.674,1.216,16.639-3.612-3.174-1.9-20.247,1.158-25.348,1.09-5.715-.083-21.509-1.862-21.376-1.979,4.7-3.626,26.724-.158,27.549-.135,13.44.215,18.265.226,27.547-.156-7.518-7.607-39.23-1.731-57.633-4.326-2.915-.419-.262-2.669-6.714-4.049-.318-.073-32.645-2.521-32.073-2.957,6.418-4.934,30.375,2.367,42.2-2.224-165.328-16.652-360.292-10.484-536.043-19.131-6.469,1.051-11.654,1.073-14.873-.389-2.479.153-5.93,1.054-6.383-.342-3.151.247-7.7,1.52-8.488-.046-2.487.153-5.925,1.033-6.393-.342-10.995,2.894-2.806-3.415,0,0,2.479-.172,5.924-1.053,6.393.342,3.158-.248,7.692-1.54,8.488.046,2.479-.153,5.923-1.053,6.383.342,6.479-1.052,11.671-1.073,14.873.389,182.885-2.352,352.316,12.026,539.359,8.692,10.726-.19,16.781.041,29.534-1.68,5.137-.666-.078.247,4.068-1.818-11.462,5.665-2.274-6.393,1.769-3.982-4.211-2.506-38.4-.524-46.726-.889-16.665-.729-30.392-3.313-42.762-3.956-9.829-.489-25.846.981-36.029.108-2.18-.186-1.723-2.106-4.405-1.885-3.9.352-24.834-.662-36.147-1.12-29.764-1.17,23.3-1.195,33.831-1.022,14.64.225,26.218,1.493,42.421.234-6.465.34-26.612-2.9-34.278-3.89-5.62-.727-15.385.177-19.162-1.047-.517-.144,5.113-2.894,3.958-3.046-13.212-1.729-30.963-.31-46.718-.89-100.366-3.647-211.464-4.634-312.434-8.295-6.479,1.053-11.669,1.094-14.873-.389-3.153.227-7.7,1.541-8.5-.044-2.479.151-5.915,1.052-6.383-.344-3.153.228-7.7,1.521-8.5-.044-10.979,2.892-2.8-3.395,0,0,3.166-.25,7.692-1.539,8.5.044,2.477-.171,5.924-1.053,6.383.344,3.153-.228,7.693-1.54,8.5.044,6.477-1.052,11.654-1.071,14.873.389,98.306.424,197.358,1.294,295.024,3.268,27.695.554,52.321.948,84.862.5,16.21-.234-33.336-2.542-49.042-3.05-11.887-.4-19.434-.24-27.669-1.111-89.032-9.254-193.535-7.422-293.476-9.706-8.166-.17-17.111-1.2-25.561-1.369-15.676-.354-26.34.717-29.875-2.022-.085,3.743-8.8.056,0,0-39.915-4.141-90.6-5.6-136.153-3.277.044.014.127,0,.161.018,1.108.475-5.047,2.587-6.172,2.114-.829-.357,2.4-1.622,4.551-2.044-2.555.143-5.1.265-7.615.443-.125.848-3.815,2.4-5.535.327-18.154,3.293,7.463-4.292-10.682-1-2.135,4.093-11.232.242,0,0-.8-1.566-5.336-.274-8.5-.046-2.134,4.113-11.216.24,0,0-.795-1.565-5.329-.274-8.481-.046,1.678,1.777-9.693,3.382-8.379,1.183-3.151.246-7.685,1.538-8.481-.048a262.258,262.258,0,0,1-44.517.063q-43.693,2.018-82.664.41c-3.1-.233-10.694,2.99-10.568.268-3.17.229-7.7,1.521-8.5-.045-3.1-.273-10.689,2.949-10.571.228-11.89,2.567-12.155-.4-.11-1.229-8.358-1.012-19.018-.278-29.652.453,10.863,2.3-22.36,3.275-35.7,3.794-80.6,3.022-168.138,7.24-257.559,12.632-129.174,7.783-254.144,13.572-385.515,28.222-39.763,4.427-74.987,9.969-119.578,14.386-23.9,2.347,55.549-8.1,64.922-9.162,142.681-16.285,230.918-23.563,389.254-33.725,84.78-5.468,160.439-7.556,249.057-12.716,43.15-2.5-30.149-.129-50.8.95-64.868,3.368-131.731,7.256-194.066,11.174C643.324,3044.377,567,3046.164,459.919,3058.2c-13.893,1.565-27.8,2.955-37.8,4.089-9.586,1.1-58.984,5.915-58.85,5.816,5-3.844,42.91-5.008,50.362-5.862,79.458-9.061,156.949-16.186,239.6-23.821,113.363-10.488,224.547-12.653,333.369-18.374,108.979-5.724,215.846-8.049,317.4-7.374,210.217,1.394,408.873,13.068,603.053,9.675,13.726-.238,34.006-1.9,48.6-1.883,28.6.07-7.33-4.455-11.025-4.665-51.947-2.876-87.128-2.019-136.211-5.716-.954-.062-20.3-2.8-21.377-1.979,4.438-3.41,35.441-2,40.107-1.907,22.159.407,48.163,1.95,72.3,2.277,13.409.161,28.9,1.587,38.142-.407,8.622-1.849-5.437-2.136-.439-4.914-1.233.667,15.721-.836,12.446-3.021-3.5-2.35-23.988-.287-31.843-.482-11.163-.281-14.731-.013-29.866-2.025-10.995,2.915-2.823-3.413,0,0,34.276-2.626,67.449,1.935,105.907-1.222,23.867-1.987-20.391-1.644-23.474-1.683-13.336-.191-33.165-.157-23.591-2.91-44.065-2.963,72.007-4.535,37.594-6.55-5.011-.3-11.174-3.043-17.3-3.8-.915-.108-43.585-2.933-13.013-3.16,13.646-.089,47.376-1.039,18.636-5.118-12.912-1.83-17.77.337-34.068-1.432-15.187-1.648,15.3-1.508,25.975-3.192-3.015-.5-5.334-4.1-3.272-3.744-7.756-1.334-24.063,1.2-29.637.431-1.817-.238-2.4-2.938-6.729-4.027-.027-.015-14.258-1.107-12.9-1.932,7.56-4.541,28.981,4.046,33.951.205,3.729-2.876-28.871-2.817-32.064-2.959-74.531-3.422-128.87-3.652-206.309-7.059-7.979-.335-51.056-2.372-17.182-2.551,9.789-.058,68.21-2.695,27.218-3.841-29.665-.829-76.608-3.761-102.169-4.3-9.175.919-17.471,1.162-23.363-.434-13.276,3.295-4.927-3.115,0,0,9.176-.92,17.486-1.184,23.363.434,65.114-.422,162.859,2.173,239.8,2.333,29.631.064,55.435,2.267,78.374-1.088-1.772.25-4.313-.754-4.633-1.42-.37-.1-.433-.254.221-.445-.319.1-.3.279-.221.445,3.713,1.155,54.458-2,54.768-6.9.021-.32-22.531.514-25.461-.159-.342-.071-.225-5.062-2.636-5.848-8.474-2.792-38.251.975-32.074-2.977-1.651,1.063,20.736-.4,18.96-1.412-4.075-2.307-24.589.213-33.951-.2-12.631-.567-18.872-1.937-27.87-3.55.35,1.471-2.982,1.19,0,0-10.171-2.237-49.8-2.609-74.5-3.19-8.276-.213-21.383-1.977-21.383-1.977,3.7-2.852,44.341.317,57.309.62,20.171.51,44.091.708,67.782-.819,16.281-1.034,32.693,1.745,42.429.252-4.61.71,20.843-6.93,20.607-6.64-.671.746-4.047-5.194-9.03-6.21-5.062-1.043-15.167,1.311-21.166.479-5.116-.7-8.1-4.228-11.027-4.683-5.053-.768-12.039.613-16.961-.1-12.686-1.842-32.609-4.737-51.361-5.231-6.479,1.033-11.659,1.092-14.872-.389-3.153.227-7.7,1.52-8.49-.046-10.986,2.914-2.8-3.395,0,0,3.153-.227,7.694-1.539,8.49.046,6.479-1.033,11.661-1.073,14.872.389,31.483.3,65.455-4.419,96-7.189,2.964-.359,8.5-.825,17.744-1.378-5.733.354-11.7.86-17.744,1.378-13.162,1.66,26.246,1.351,26.107-2.559-.008-.67-17.816-.644-21.257-.733-21.455-.507-31.087-.49-55.215-.936-14.234-.281,26.734-2.311,35.809-2.565-.119,0,12.556.676,10.468-1.478-1.258-1.3-24.973.425-21.156.5-8.743-.167-49.215.094-51.243-4,.606,1.238,3.749-1.635,2.709-2a15.785,15.785,0,0,0-2.819.772c1.622-.742,2.464-.9,2.819-.772,14.625-2.953,68.5-4.415,30.565-5.183-9.417-.191-30.976-1.67-38.346-2.071-13.814-.756-41.905-1.314-42.99-6.413-8.58,2.415-.735-3.627,0,0,3.427-.72,38.7-.267,38.034-1.615-1.931-3.953-48.6,2.178-51.243-4-8.588,2.416-.75-3.607,0,0,15.807-1.283,36.156.564,57.306.659,38.87.142,4.859-4.24-8.922-4.98-28.807-1.562-54.97-.259-87.171-2.685-13.6-.983,7.877-3.7,8.144-3.637-4.694-1.253-21.47-1.235-34.159-2.643-30.52-3.413-71.6-3.166-106.348-3.71-125.283-1.947-239.433-5.525-365.223-5.821-29.146-.073-55.248.945-88.826,2.545-56.684,2.727-116.4,1.419-175.673,3.6-63.342,2.325-126.457,9.435-185.482,12.453-60.916,3.088-123.162,8-185.474,12.451-62.48,4.454-125.054,7.1-187.478,13.978-145.52,16.073-300.424,33.451-467.28,62.21-20.471,3.54-42.212,8.958-62.495,12.551-33.252,5.937-67.285,10.8-85.41,17.05-3.875,1.337-8.59,5.2-14.111,8.23-4.3,2.364-11.608,2.172-5.946,4.571,5.184,2.211,54.769-14.028,66.454-15.6,22.63-3.057,43.715-8.678,77.155-14.64,98.334-17.53,200.595-28.663,299.438-42.256,1.641-.231,32.4-5.2,29.424-2.909-3.838,2.971-67.291,9.5-79.576,11.23-29.306,4.136-49.676,8.274-75.271,11.867-33.9,4.764-77.1,9.972-110.98,15.661C-42,2952.74-88,2962.686-140.913,2978.368c-13.342,3.957-28.874,9.169-26.449,12.46,1.48,2,19.158-.886,17.191,2.57-.957,1.676-27.66,6.984-35.157,9.957-13.458,5.315-.155,3.537,10.7.978,15.83-3.734,18.758-3.455,2.316,2.161,3.534-1.209-9.584,4.236-8.056,4.889,4.378,1.851,19.643-7.471,31.19-6.909,7.47.367,4.938,6.136,13.226,5.616,2.472.521,31.322-8.448,29.323-4.138-2,4.331-23.74,5.66-37.263,10.255-9.978,3.383-39.908,17.182-15.863,12.21,18.649-3.857-17.511,6.163-14.112,8.231,2.635,1.6,39.647-9.5,40.005-3.139-.143-2.626-20.725,6.064-20.981,5.646-2.271,1.822-5.912,9.266-5.037,11.729-.362-1.034,14.254,11.219,15.871,11.483,7.139,1.185,20.36-4.907,22.933-4.48,5.828.995.683,6.538,6.942,6.5,11.385-.047,68.608-15.348,85.3-18.277,5.587-.967,64.152-7.809,29.424-2.908-16.906,2.385-79.871,17.965-97.762,21.279-16.329,3.035-18.131,3.072-30.854,10.594-4.663,2.75-11.044,5.823-12.014,7.935-2.229,4.836,4.426,1.922,9.03,6.209,2.69,2.483-8.507,3.688,2.648,5.865,14.587,2.819-15.444,4.885-7.611,9.8,7.823,4.9,35.415-8.118,50.041-9.55,15.54-1.542-3.7,2.181-8.161,3.64-12.378,4.057-13.464,3.559-28.869,9.05-1.578.559-15.9,3.566-12.132,6.708,5.367,4.455,18.1-13.651,23.15-2.024,1.671,3.852-16.224,6-13.891,10.688,2.729,5.479,27.129-3.433,29.654-.433,2.732,3.248-27.014,8.67-17.967,12.507,9.57,4.081,35.56-10.052,47.657-9.825,1.2-1.451,1.979-1.8,1.483.167.289.038.635.048.9.111a3.428,3.428,0,0,0-.912-.07,45.326,45.326,0,0,1-2.734,6.8c.909-1.945-.078-6.7,2.734-6.8.007-.021.014-.022.012-.041a10.518,10.518,0,0,0-1.483-.167c-2.061,2.483-5.151,7.915-4.605,9.813,2.841-.618,4.418-.823,3.563-.326-2.283,1.31-3.308,1.2-3.563.326-10.682,2.277-40.313,10.663-35.559,12.679,2.548,1.081,53.337-13.411,62.267-15.026,1.56-.28,48.754-8.816,48.154-6.8-.032.123-29.178,5.2-31.286,5.658-12.7,2.721-82.33,19.3-78.475,23.554,1.648,1.821,15.483-3.212,20.818-4.181,11.487-2.1,31.609-4.58,39.9-4.387,2.851.051,1.932,2.076,6.5,1.57,2.762-.291,63.357-13.9,62.606-11.323-.442,1.444-33.854,6.693-39.572,8.072-5.906,1.445-30.314,8.187-30.753,11.823-.4,3.274,15.179-3.228,4.414,1.865-2.576,1.233-58.446,10.539-53.463,18.78,4.4,7.238,32.475-2.49,52.465-6.16,6.74-1.228,37.246-6.5,48.044-8.023,23.73-3.349-3.708,3.208-12.227,5.457-12.8,3.386-26.977,5.6-35.048,11.186-2.435,1.686.059,2.815-3.862,4.3-6.311,2.352-31.657,5.178-40.478,10.333-.669.884-6.832,6.3-4.591,7.243,1.7.727,38.186-10.524,45.619-11.414,2.77-.351,27.537-.076,27.562-.158-.3,1.228-23.884,3.015-27.014,6.3-1.167,1.231,5.177,4.048.55,6.162-9.433,4.332-18.175,2.407-29.089,6.593-18.226,6.995-19.053,13.8.77,8.619,12.81-3.348,13.223-4.828,26.889-7.527,40.253-7.97-25.378,8.182-18.077,11.279,4.055,1.719,25.007-8.011,35.268-8.709-2.711.185-1.7,1.78,4.405,1.867,9.042.125,11.406-1.216.44,4.933-12.239,6.842,4.689,3.445,15.1,2.845,7.4-3.177,17.686-5.122,29.1-6.594,10.753-5.329,20.254-1.3,0,0-7.744,3.028-18.028,4.972-29.1,6.594-6.408.233-45.779,18.466-47.172,17.892.741.309,9.728-2.144,15.742-3.881-3.211.691-5.492,1.191-5.376,1.155,14.9-4.136,11.9-3.061,5.376-1.155,10.908-2.387,33.288-7.105,15.551-1.8-2.606.8-4.5,4.268-10.019,6.41-3.81,1.505-9.738,1.295-11.664,2.949,2.368-1.125,10.133,4.257,8.019,3.8,2.84.606,8.243.575,10.687.979,20.4,3.479,50.775-8.547,81.452-13.982,146.735-25.978,339.994-51.81,486.238-63.621,12.849-1.043,3.632-.217,16.862-1.136,15.094-1.063-69.616,7.731-83.966,9.342-98.106,11.061-194.653,20.48-312.34,40.345-39.5,6.681-91.956,15.623-127.18,24.187-14.006,3.4-28.61,6.486-35.269,8.71-1.369.45-25.329,11.472-24.256,13.413,2,3.589,65.117-12.229,77.155-14.639,104.188-20.864,228.864-36.523,339.12-49.1,187.08-21.345,362.048-32,530.765-39.991,64.628-3.059,132.764-7.619,196.383-8.995,247.865-5.4,483.842,3.831,728.136,9.479,35.786.834,88.962,2.708,133.888,3.575,14.527.26,33.914.269,23.379.433,6.764-.106,16.817,2.7,14.654-2.068.073.167-27.985-4.087-30.084-4.482-22.941-4.463-57.979-2.658-89.378-3.618-30.268-.9-59.443-3.557-85.3-5.418-2.487.174-5.923,1.054-6.4-.34-10.979,2.912-2.806-3.395,0,0,2.487-.153,5.932-1.034,6.4.34,72.4.367,165.61,4.391,250.6,4.561,3.174.006,31.152,2.712,33.617-3.52-.046.144-20.347-1.631-19.285-2.254,5.674-3.27,10.79,1.854,18.956-1.432C2084.1,3145.448,2045.246,3146.864,2072.561,3142.417Zm-39.338-36.861c1.038.446-3.473,2.09-4.068,1.818C2028.1,3106.95,2032.613,3105.306,2033.223,3105.556Zm-11.238-7.142c1.441.625-.923-.383,0,0Zm-65.022-15.763c-.918-.4,1.448.625,0,0Zm-93.884-30.408c1.038.446-3.481,2.09-4.085,1.821C1857.949,3053.639,1862.468,3051.994,1863.078,3052.244Zm-23.363-.435c1.038.446-3.473,2.089-4.076,1.819C1834.594,3053.2,1839.1,3051.54,1839.715,3051.809Zm-6.4-.36c1.04.464-3.456,2.086-4.074,1.839C1828.2,3052.842,1832.7,3051.2,1833.313,3051.449Zm-29.745-.779c1.03.447-3.464,2.088-4.076,1.82C1798.445,3052.045,1802.958,3050.421,1803.568,3050.67Zm-10.468,1.478c1.446.606-.933-.382,0,0Zm-298.332-16.523c1.44.626-.924-.383,0,0Zm-5.394-12.942c1.038.446-3.474,2.07-4.084,1.821C1484.26,3024.056,1488.762,3022.414,1489.374,3022.683Zm-1.1,11.37c1.03.447-3.475,2.07-4.083,1.82C1483.152,3035.427,1487.657,3033.8,1488.274,3034.053Zm-6.4-.341c1.108.476-5.047,2.589-6.164,2.115S1480.748,3033.24,1481.873,3033.712Zm-9.361-9.914c1.439.626-.924-.383,0,0Zm.881,9.867c1.038.446-3.475,2.07-4.085,1.82C1468.27,3035.039,1472.775,3033.417,1473.393,3033.665Zm-14.882-.387c1.037.426-3.474,2.07-4.085,1.82C1453.389,3034.653,1457.9,3033.008,1458.512,3033.278Zm-14.875-.408c1.03.446-3.473,2.089-4.085,1.82C1438.515,3034.264,1443.018,3032.62,1443.637,3032.87Zm330.732-24.223c1.446.6-.933-.382,0,0Zm-12.888-1.933c1.038.446-3.471,2.089-4.09,1.841C1756.361,3008.108,1760.872,3006.465,1761.481,3006.715Zm-36.052.111c3.161-.228,7.7-1.541,8.5.044,21.58-2.709,12.177,3.553,0,0-3.159.229-7.692,1.54-8.5-.044C1714.451,3009.737,1722.624,3003.431,1725.428,3006.826Zm-8.591-1.275c1.038.446-3.466,2.068-4.075,1.819C1711.723,3006.923,1716.219,3005.282,1716.837,3005.551Zm-6.377-.364c1.1.477-5.063,2.61-6.188,2.137C1703.165,3006.848,1709.319,3004.716,1710.461,3005.187Zm-8.5-.045c1.038.446-3.473,2.089-4.076,1.82C1696.841,3006.516,1701.362,3004.891,1701.964,3005.141Zm-8.481-.046c1.038.446-3.474,2.07-4.093,1.821C1688.359,3006.469,1692.864,3004.847,1693.483,3005.1Zm-6.4-.342c1.117.474-5.047,2.588-6.164,2.115S1685.966,3004.279,1687.082,3004.753Zm-8.481-.046c1.038.446-3.475,2.07-4.085,1.82C1673.478,3006.081,1677.991,3004.458,1678.6,3004.707Zm152.875-116.351c1.043.425-3.466,2.069-4.076,1.819C1826.353,2889.73,1830.864,2888.087,1831.476,2888.356Zm-8.481-.047c1.037.427-3.474,2.071-4.085,1.821C1817.872,2889.684,1822.383,2888.04,1822.995,2888.309Zm-6.4-.36c1.117.474-5.046,2.607-6.163,2.133C1809.319,2889.587,1815.476,2887.475,1816.593,2887.949ZM-86.143,3021.779c-7.177,3.934-46.942,11.363-25.021,4.774a148,148,0,0,1,25.021-4.774C-84.008,3017.687-74.919,3021.537-86.143,3021.779Zm45.6,107.041c-1.106-.457,5.049-2.589,6.166-2.115S-39.414,3129.311-40.541,3128.819Zm12.465-3c-.009,0,9.136-3.225,10.35-2.7C-17.614,3123.156-23.713,3127.688-28.076,3125.816ZM43.2,3211.8c-1.117-.474,5.054-2.609,6.172-2.114C50.5,3210.157,44.332,3212.27,43.2,3211.8Zm.241-92.323c1.431.608-.923-.382,0,0Zm37.577-6.546c-.694.118-21.217,4.021-23.032,3.251C55.552,3115.14,104.023,3108.695,81.018,3112.928Zm10.477-1.478c-1.038-.446,3.473-2.09,4.075-1.839C96.618,3110.075,92.1,3111.7,91.495,3111.45Zm-10.358-20.989c-23.88,3.824-50.066,9.079-68.88,12.208-9.04,1.493-24.3,3.765-27.22,3.841-16.461.427,33.632-7.215,4.076-1.82,13.089-2.4,21.611-3.385,50.143-8.319,26.531-4.593,32.053-7.6,54.335-8.912C106.263,3086.7,84.951,3089.844,81.137,3090.462Zm1310.482-70.194c1.045.425-3.475,2.07-4.076,1.819C1386.5,3021.641,1391.007,3020,1391.619,3020.267Zm-6.394-.361c1.117.474-5.056,2.608-6.172,2.135C1377.935,3021.546,1384.1,3019.433,1385.225,3019.906Zm-8.481-.047c1.038.445-3.473,2.09-4.085,1.821C1371.614,3021.254,1376.134,3019.609,1376.744,3019.859Zm-8.5-.045c1.045.446-3.466,2.089-4.076,1.82C1363.141,3021.186,1367.646,3019.563,1368.247,3019.813Zm-235.286.782c1.117.474-5.046,2.607-6.172,2.115C1125.672,3022.236,1131.836,3020.122,1132.961,3020.6Zm-24.471,10.937c82.479-2.023,179.419-.658,252.376.557,9.174-.938,17.485-1.183,23.362.436,3.159-.249,7.7-1.521,8.49.045,2.479-.152,5.924-1.053,6.383.344,13.3-3.3,4.945,3.112,0,0-2.479.152-5.924,1.052-6.383-.344-3.151.248-7.693,1.54-8.49-.045-9.167.919-17.478,1.163-23.362-.436-89.347.585-183.564.848-273.312,2.4C1052.193,3035.093,1087.839,3032.038,1108.491,3031.532Zm228.023,12.722c-3.161.229-7.7,1.52-8.49-.066-10.436.723-19.333.813-31.742.747-4.574-.006-43.542-1.122-25.672-2.617,15.168-1.271,50.466,1.982,57.414,1.869,3.151-.228,7.693-1.52,8.49.066C1354.45,3041.447,1345.9,3048.024,1336.514,3044.254Zm-827.542-6.686c-1.18.226-7.6,1.507-8.372,1.182C498.149,3037.714,528.556,3033.956,508.972,3037.569Zm21.046-1.725c-1.164.223-7.586,1.5-8.372,1.181C519.2,3035.987,549.6,3032.25,530.017,3035.844Zm14.764-.841s9.145-3.226,10.365-2.706C555.252,3032.341,549.168,3036.854,544.781,3035Zm1030.346-96.768c10.988-2.895,2.8,3.4,0,0C1553.541,2940.966,1562.951,2934.682,1575.127,2938.236Zm-17.079-1.322c1.038.445-3.473,2.089-4.076,1.82C1552.924,2938.288,1557.427,2936.646,1558.047,2936.914Zm-48.823-.594c1.047.445-3.475,2.07-4.076,1.819C1504.1,2937.695,1508.623,2936.07,1509.224,2936.32Zm-6.392-.343c1.117.474-5.041,2.588-6.181,2.117C1495.55,2937.618,1501.716,2935.5,1502.833,2935.977Zm-25.461-.159c1.038.446-3.473,2.09-4.075,1.839C1472.25,2937.214,1476.77,2935.568,1477.371,2935.819Zm-6.392-.341c1.117.475-5.046,2.608-6.164,2.114C1463.69,2937.118,1469.863,2935,1470.979,2935.478Zm-14.772.841c10.995-2.914,2.813,3.394,0,0C1445.23,2939.23,1453.4,2932.923,1456.208,2936.319Zm-53.118-1.231c3.161-.229,7.7-1.521,8.49.045,2.479-.153,5.923-1.053,6.392.343,3.161-.23,7.687-1.52,8.49.045,2.479-.153,5.924-1.054,6.394.361,3.149-.248,7.685-1.539,8.48.048,10.986-2.913,2.811,3.374,0,0-3.143.226-7.685,1.518-8.48-.048-2.489.134-5.925,1.033-6.394-.361-3.153.227-7.685,1.538-8.49-.045-2.479.151-5.924,1.052-6.392-.343-3.153.227-7.687,1.52-8.49-.045C1392.1,2937.98,1400.285,2931.691,1403.089,2935.087Zm-8.581-1.277c1.028.426-3.474,2.07-4.093,1.821C1389.385,2935.185,1393.888,2933.542,1394.508,2933.81Zm-8.492-.066c1.038.446-3.473,2.089-4.074,1.839C1380.894,2935.119,1385.415,2933.494,1386.017,2933.745Zm-6.392-.343c1.108.475-5.046,2.607-6.181,2.117C1372.336,2935.044,1378.491,2932.93,1379.625,2933.4Zm-547.6-77.347c32.3-4.776,105.749-5.9,145.587-8.086,29.373-1.617-23.321,2.561-29.428,2.889-28.045,1.53-48.5,2.185-80.234,3.859-6.616.343-38.32,4.421-40,3.158C826.98,2857.122,831.16,2856.177,832.022,2856.055Zm-10.588.231c1.047.444-3.456,2.087-4.074,1.838C816.328,2857.658,820.831,2856.015,821.434,2856.286Zm-33.715,2.25c1.038.446-3.471,2.108-4.081,1.839C782.6,2859.93,787.1,2858.287,787.719,2858.536Zm-8.488-.047c.106.063-6,4.578-10.367,2.708C768.864,2861.2,778.011,2857.99,779.231,2858.489Zm-18.949,1.431c1.1.477-5.056,2.589-6.173,2.114C752.986,2861.582,759.148,2859.448,760.282,2859.92Zm-18.965,1.432c1.151.49-6.8,3.033-8.262,2.41C731.9,2863.274,739.859,2860.729,741.317,2861.352Zm4.612,99.123a534.306,534.306,0,0,1,61.168-3.637c25.31-2.387,49.724-4.076,71.739-3.884,43.472-3.589,88.89-5.416,132.913-7.542,3.793-.18,65.525-2.573,33.939.187-53.4,4.712-127.87,6.118-166.852,7.354-25.32,2.367-49.719,4.035-71.739,3.884a530.324,530.324,0,0,1-61.168,3.637C725.958,2964.852,734.5,2958.275,745.928,2960.474Zm-19.375-98.282c1.117.474-5.047,2.587-6.164,2.113S725.428,2861.718,726.553,2862.192Zm-3.767,100.3c-1.174.205-7.585,1.524-8.372,1.181C711.972,2962.639,742.373,2958.9,722.786,2962.5ZM707.6,2863.621c.106.045-6,4.559-10.365,2.708C697.239,2866.329,706.383,2863.1,707.6,2863.621Zm-14.77.841c1.108.476-5.056,2.589-6.173,2.114S691.708,2863.989,692.833,2864.462Zm4.6,99.123c19.979-4.379,11.434,2.2,0,0C677.464,2967.943,686.009,2961.367,697.436,2963.585Zm315.185,39.083c66.1-3.147,136.941-4.535,203.119-4.969,53.791-.365,126.6-3.2,184.485.148,3.509.2,27.723.965-1.885,2.773-28.317,1.687-57.061-.378-84.86-.5-211.454-1.042-441.855,12.241-676.009,28.047-12.841.845-51.195,2.545-50.693,2.158,3.707-2.853,36.5-3.65,52.57-4.911C771.37,3014.934,887.035,3008.6,1012.621,3002.667ZM389.869,2891.005c-.694.117-21.226,4.021-23.032,3.25C364.394,2893.217,412.865,2886.772,389.869,2891.005Zm-37.916,2.843c-1.83-.769-35.681,9.735-41.763,7.138C311.205,2901.435,347.147,2891.8,351.953,2893.848Zm-79.177,229.437c-1.038-.446,3.473-2.09,4.081-1.84C277.9,3121.892,273.393,3123.534,272.776,3123.285Zm10.277-122.429c117.431-13.611,247.571-28.421,346.94-32.75,19.979-4.379,11.427,2.2,0,0-58.307,6.628-114.172,10.07-170.387,15.318-65.231,6.085-131.809,16.349-186.911,20.136C248.354,3005.219,278.906,3001.322,283.054,3000.856Zm61.459,165.913c-6.926,1.016-29.889,6.271-33.5,4.728,4.04,1.72,57.4-13.53,64.8-10.39C373.485,3160.114,352.2,3165.665,344.513,3166.77Zm3.763-52.9c-4.544-1.925,54.79-8.323,25.129-3.545C372.717,3110.425,350.194,3114.689,348.275,3113.874ZM382.31,3162.7c-1.152-.509,6.812-3.035,8.277-2.432C391.731,3160.778,383.784,3163.3,382.31,3162.7Zm37.7-5.321c-.818.135-23.569,4.194-25.137,3.547C391.054,3159.294,443.1,3153.134,420.013,3157.379Zm37.8-4.09c-.808.154-23.558,4.214-25.129,3.546C428.85,3155.2,480.9,3149.044,457.809,3153.289Zm-29.857-49.414c-13.284,3.315-4.928-3.116,0,0,6.236-.84,12.3-1.8,18.847-2.66C482.318,3096.538,443.988,3104.593,427.952,3103.875Zm42.541,48.868c2.216.951,15.771-5.148,18.728-3.887C489.188,3148.841,475.484,3154.863,470.494,3152.743Zm545.842-37.122c-1.108-.476,5.056-2.59,6.181-2.117C1023.625,3113.979,1017.468,3116.092,1016.336,3115.621Zm33.739-2.255c-3.753-.2-12.176,3.219-12.677.526-15.542,3.674-7.09-2.811,0,0,3.743.182,12.169-3.218,12.677-.526C1065.6,3109.676,1057.156,3116.178,1050.075,3113.365Zm16.961.1c-1.15-.49,6.813-3.035,8.271-2.412C1076.457,3111.539,1068.5,3114.064,1067.036,3113.461Zm10.586-.251s9.145-3.225,10.367-2.706C1088.093,3110.549,1081.992,3115.062,1077.622,3113.21Zm12.674-.544c-1.159-.489,6.805-3.034,8.262-2.41C1099.717,3110.744,1091.763,3113.288,1090.3,3112.666Zm27.438-1.384c1.45.625-.923-.384,0,0Zm8.492.066c-1.047-.446,3.464-2.089,4.075-1.839C1131.347,3109.953,1126.827,3111.6,1126.225,3111.348Zm281.586-52.217c-257-4.446-538.892,10.257-828.431,30.837-4.607.572-8.8,1.42-12.556,1.772-7.663.766-53.165,4.639-35.945,1.341,16.38-3.121,37.679-2.3,48.5-3.113,295.225-24.957,576.006-38.813,828.431-30.837C1418.8,3056.218,1410.624,3062.525,1407.812,3059.131Zm8.591,1.275c-1.106-.456,5.056-2.589,6.172-2.114S1417.53,3060.9,1416.4,3060.406Zm-.212-26.151c-1.038-.447,3.473-2.09,4.076-1.82C1421.313,3032.88,1416.8,3034.5,1416.191,3034.255Zm296.541,115.283c-1.047-.444,3.475-2.069,4.076-1.819C1717.855,3148.165,1713.342,3149.789,1712.732,3149.539Zm12.676-.544c-10.986,2.912-2.8-3.376,0,0C1736.394,3146.1,1728.227,3152.388,1725.408,3148.994Zm10.694.979c-1.037-.427,3.466-2.069,4.068-1.818C1741.217,3148.6,1736.705,3150.243,1736.1,3149.973Zm14.875.408c1.45.624-.923-.383,0,0Zm10.586-.249c-10.995,2.914-2.812-3.394,0,0C1772.534,3147.24,1764.367,3153.528,1761.563,3150.132Zm8.584,1.3c-1.108-.475,5.054-2.609,6.181-2.115C1777.443,3149.766,1771.288,3151.9,1770.147,3151.428Zm150.227-27.458c1.441.625-.933-.382,0,0Zm10.579-.229c-11,2.894-2.8-3.4,0,0C1941.932,3120.828,1933.759,3127.135,1930.954,3123.74ZM-52.959,2942.261c.62.268,5.123-1.374,4.076-1.819C-49.484,2940.191-54,2941.835-52.959,2942.261ZM1125.19,2790.969c7.083,2.812,15.526-3.672,0,0Zm38.015-1.633c-.61-.249-5.113,1.394-4.074,1.839C1159.733,2791.425,1164.244,2789.782,1163.206,2789.336Zm10.681,1c-4.927-3.116-13.274,3.315,0,0Zm10.586-.25c.126-2.722-7.477.483-10.586.25C1173.777,2793.058,1181.379,2789.833,1184.473,2790.086Zm0,0c4.55,1.333,11.243,1,19.061-.182C1198.99,2788.552,1192.3,2788.885,1184.473,2790.086Zm29.647-.432c.108-2.74-7.477.483-10.586.251C1203.422,2792.605,1211.009,2789.4,1214.12,2789.654Zm8.488.046c-.8-1.584-5.331-.293-8.488-.046C1214.915,2791.22,1219.448,2789.93,1222.608,2789.7Zm8.49.046c-.8-1.584-5.347-.292-8.49-.046C1223.4,2791.267,1227.945,2789.974,1231.1,2789.747Zm0,0c4.533,1.334,11.243,1,19.057-.2C1245.605,2788.212,1238.913,2788.546,1231.1,2789.747Zm29.635-.45c.12-2.7-7.475.5-10.578.248C1250.048,2792.286,1257.632,2789.063,1260.733,2789.3Zm8.49.045c-.795-1.566-5.329-.274-8.49-.045C1261.529,2790.882,1266.072,2789.59,1269.223,2789.342Zm10.586-.249c.111-2.7-7.492.5-10.586.249C1269.107,2792.083,1276.7,2788.86,1279.809,2789.093Zm8.481.066c-.795-1.586-5.329-.275-8.481-.066C1280.606,2790.677,1285.14,2789.387,1288.291,2789.159Zm8.473.048c-.788-1.587-5.329-.275-8.473-.048C1289.085,2790.726,1293.619,2789.434,1296.764,2789.208Zm0,0c4.559,1.33,11.251,1,19.085-.185C1311.3,2787.689,1304.6,2788,1296.764,2789.208Zm19.085-.185c2.8,3.375,10.979-2.913,0,0Zm12.667-.544c-.612-.27-5.123,1.375-4.076,1.819C1325.05,2790.547,1329.552,2788.9,1328.516,2788.478ZM-161.408,3009.95c15.8-.729,6.418-4.717,0,0Zm0,0c-2.981,1.112-10.954.084-10.358,2.705C-168.792,3011.564-160.821,3012.573-161.408,3009.95Zm-10.358,2.705c-20.426,2.468-10.9,6.514,0,0Zm35.809-2.566c-13.528.489-4.255,4.413,0,0ZM1930.674,2812c2.811,3.375,10.995-2.913,0,0Zm9.148,7.417c1.454,1.631,2.519-.455,0,0ZM-48.6,3157.4c-1.117-.474-7.282,1.64-6.166,2.115S-47.466,3157.854-48.6,3157.4Zm2010.345-282.453c-.619-.249-5.121,1.394-4.076,1.819C1958.285,2877.037,1962.78,2875.4,1961.749,2874.948Zm-911.334,147.305c-9.252-2.505-17.758,4.045,0,0Zm33.842-1.024q-13.742-1.911-33.842,1.024A218.971,218.971,0,0,0,1084.257,3021.229Zm0,0c4.928,3.115,13.274-3.315,0,0Zm12.786.7c1.117.474,7.281-1.639,6.164-2.113C1102.079,3019.326,1095.924,3021.439,1097.042,3021.932Zm18.95-1.43c-4.945-3.113-13.276,3.315,0,0Zm40.221-.7c.118-2.722-7.475.5-10.569.247.038.429.073.819.11,1.229Zm8.61,1.293c3.092.234,10.687-2.969,10.568-.268l10.477-1.479c-7.344-1.787-18-1.053-29.654.454.038.428.073.818.111,1.248C1159.484,3020.8,1164.018,3019.51,1164.823,3021.1Zm29.517-1.678c-.8-1.586-5.331-.295-8.473-.069C1186.655,3020.936,1191.2,3019.644,1194.34,3019.417Zm10.586-.25c.126-2.723-7.477.482-10.586.25C1194.23,3022.138,1201.833,3018.932,1204.926,3019.168Zm0,0c4.936,3.113,13.284-3.316,0,0Zm19.17,1.045c.617.249,5.128-1.395,4.083-1.84C1227.578,3018.123,1223.067,3019.767,1224.1,3020.213Zm8.495.025c1.118.494,7.281-1.639,6.166-2.094C1237.639,3017.651,1231.466,3019.765,1232.592,3020.238Zm8.483.066c1.125.473,7.287-1.66,6.171-2.134S1239.967,3019.83,1241.075,3020.3Zm8.488.047c1.125.474,7.282-1.64,6.174-2.115C1254.612,3017.763,1248.455,3019.876,1249.563,3020.351Zm8.492.066c13.527-.488,4.254-4.431,0,0Zm10.576-.268c.6.27,5.115-1.374,4.078-1.8C1272.1,3018.079,1267.584,3019.7,1268.631,3020.149Zm8.483.067c.608.25,5.121-1.375,4.073-1.839C1280.58,3018.146,1276.074,3019.769,1277.114,3020.216Zm8.488.045c1.117.474,7.279-1.659,6.164-2.114C1290.649,3017.673,1284.485,3019.787,1285.6,3020.261Zm8.481.047c1.125.473,7.289-1.641,6.181-2.116C1299.131,3017.72,1292.975,3019.833,1294.083,3020.308Zm8.488.046,8.372-1.181C1312.266,3016.972,1300.893,3018.577,1302.571,3020.354Zm16.86-1.135c-.788-1.587-5.336-.274-8.488-.046q.055.614.11,1.229ZM-82.332,3230.757a8.671,8.671,0,0,0,.11,1.228C-66.254,3231.569-77.265,3224.059-82.332,3230.757Zm1777.794-203.492c.6.251,5.106-1.373,4.076-1.82C1698.92,3025.2,1694.415,3026.821,1695.462,3027.265Zm6.383.343c.612.27,5.123-1.373,4.076-1.819C1705.32,3025.539,1700.8,3027.164,1701.845,3027.608Zm253.372-35.755c-.8-1.585-5.337-.272-8.49-.045C1947.532,2993.393,1952.065,2992.082,1955.217,2991.853Zm-244.882,35.8c.61.268,5.115-1.375,4.076-1.821C1713.8,3025.586,1709.3,3027.228,1710.335,3027.655Zm244.882-35.8c2.8,3.4,10.988-2.893,0,0Zm8.591,1.3c1.134.472,7.3-1.662,6.179-2.136C1968.856,2990.541,1962.7,2992.673,1963.809,2993.149Zm8.5.044c1.117.474,7.279-1.658,6.164-2.114C1977.353,2990.585,1971.19,2992.718,1972.307,2993.193Zm-200.372,35.76c-.925-.4,1.439.606,0,0Zm36.147,1.118c.62.269,5.13-1.376,4.085-1.82C1811.565,3028,1807.054,3029.645,1808.082,3030.071Zm144.144,23.316c2.813,3.394,10.995-2.914,0,0Zm117.483,9.6c1.448.625-.933-.382,0,0Zm-66.351,16.846c2.813,3.394,11-2.894,0,0Zm54.219,13.556c4.945,3.112,13.284-3.3,0,0Zm16.87-1.118c-1.125-.473-7.289,1.64-6.172,2.115S2075.552,3092.73,2074.446,3092.275Zm-4.962,15.668c-.612-.27-5.123,1.374-4.068,1.818C2066.009,3110.012,2070.511,3108.37,2069.483,3107.943Zm-68.888,12.209c8.807-.06.094-3.746,0,0Zm43.859-7.434c-2.965,1.188.348,1.451,0,0Zm21.4,1.955c.6.251,5.1-1.371,4.067-1.818C2069.312,3112.606,2064.8,3114.231,2065.854,3114.674Zm-48.062,8.026c2.8,3.4,10.988-2.893,0,0Zm14.764-.839c-1.125-.473-7.287,1.66-6.171,2.135C2027.519,3124.468,2033.674,3122.354,2032.556,3121.861Zm2.317,2.18c1.125.473,7.289-1.64,6.172-2.115C2039.921,3121.433,2033.765,3123.565,2034.874,3124.041Zm8.481.047c1.125.473,7.3-1.643,6.181-2.116C2048.4,3121.481,2042.238,3123.614,2043.355,3124.089Zm-15.981,10.983c.61.25,5.123-1.375,4.092-1.822C2030.847,3132.982,2026.336,3134.626,2027.374,3135.071Zm69.1,13.943c1.445,1.613,2.525-.475,0,0Zm-74.612,19.257c-.916-.385,1.433.627,0,0Z" fill="#e3d7bf" opacity="0.2"/>
        <path id="Rectangle_4_copy_6" data-name="Rectangle 4 copy 6" d="M1849.568,3120.856h0l-823.817-121.935-1185.744-175.5,117.85-598.663,11.385,1.685,13.581-68.99C685.873,1994.485,1350.715,2101.671,1981,2453.2l-13.581,68.99,1.04.154L1850.609,3121.01Z" fill="#e3d7bf" opacity="0.2"/>
      </g>
    </g>
  </g>
</svg>
