<svg xmlns="http://www.w3.org/2000/svg" width="112.213" height="98.186" viewBox="0 0 112.213 98.186">
  <path id="Icon_awesome-quote-right" data-name="Icon awesome-quote-right" d="M10.52,2.25H38.573a10.523,10.523,0,0,1,10.52,10.52V40.823a10.523,10.523,0,0,1-10.52,10.52H21.04V65.37A14.04,14.04,0,0,0,35.066,79.4H36.82a5.247,5.247,0,0,1,5.26,5.26v10.52a5.247,5.247,0,0,1-5.26,5.26H35.066A35.057,35.057,0,0,1,0,65.37V12.77A10.523,10.523,0,0,1,10.52,2.25Zm63.12,0h28.053a10.523,10.523,0,0,1,10.52,10.52V40.823a10.523,10.523,0,0,1-10.52,10.52H84.159V65.37A14.04,14.04,0,0,0,98.186,79.4h1.753a5.247,5.247,0,0,1,5.26,5.26v10.52a5.247,5.247,0,0,1-5.26,5.26H98.186A35.057,35.057,0,0,1,63.12,65.37V12.77A10.523,10.523,0,0,1,73.64,2.25Z" transform="translate(0 -2.25)" fill="#fad2dd"/>
</svg>
