<svg xmlns="http://www.w3.org/2000/svg" width="112.21" height="98.19" viewBox="0 0 112.21 98.19">
  <path id="Icon_awesome-quote-right" data-name="Icon awesome-quote-right" d="M101.69,2.25H73.638a10.523,10.523,0,0,0-10.52,10.52V40.825a10.523,10.523,0,0,0,10.52,10.52H91.171V65.372A14.04,14.04,0,0,1,77.144,79.4H75.391a5.247,5.247,0,0,0-5.26,5.26V95.18a5.247,5.247,0,0,0,5.26,5.26h1.753A35.057,35.057,0,0,0,112.21,65.372V12.77A10.523,10.523,0,0,0,101.69,2.25Zm-63.118,0H10.52A10.523,10.523,0,0,0,0,12.77V40.825a10.523,10.523,0,0,0,10.52,10.52H28.052V65.372A14.04,14.04,0,0,1,14.026,79.4H12.273a5.247,5.247,0,0,0-5.26,5.26V95.18a5.247,5.247,0,0,0,5.26,5.26h1.753A35.057,35.057,0,0,0,49.092,65.372V12.77A10.523,10.523,0,0,0,38.572,2.25Z" transform="translate(0 -2.25)" fill="#fad2dd"/>
</svg>
